<?xml version="1.0" standalone="no"?>
<!DOCTYPE svg PUBLIC "-//W3C//DTD SVG 20010904//EN"
 "http://www.w3.org/TR/2001/REC-SVG-20010904/DTD/svg10.dtd">
<svg version="1.0" xmlns="http://www.w3.org/2000/svg"
 width="480.000000pt" height="326.000000pt" viewBox="0 0 480.000000 326.000000"
 preserveAspectRatio="xMidYMid meet">

<g transform="translate(0.000000,326.000000) scale(0.100000,-0.100000)"
fill="#000000" stroke="none">
<path d="M1180 3234 c-67 -10 -138 -28 -164 -41 -16 -9 -75 -26 -130 -38 -178
-41 -315 -102 -433 -197 -161 -127 -224 -264 -225 -490 l-1 -111 -38 -44 c-91
-104 -159 -232 -159 -298 0 -50 42 -123 159 -279 l84 -111 17 -105 c32 -189
77 -339 167 -548 194 -455 459 -827 657 -922 120 -57 269 -51 384 15 26 16 92
73 148 129 285 286 605 957 650 1364 6 54 13 71 49 115 65 82 118 156 163 231
47 78 53 119 25 188 -21 56 -91 165 -139 218 l-37 41 -3 112 c-5 287 -109 450
-374 590 -83 44 -244 100 -325 112 -22 4 -65 17 -95 30 -81 35 -273 54 -380
39z m292 -25 c75 -16 126 -44 134 -74 12 -50 -22 -634 -38 -650 -3 -3 -65 -26
-139 -51 l-134 -46 -55 17 c-97 29 -225 78 -231 87 -14 22 -45 602 -35 644 7
28 51 53 121 70 64 16 307 18 377 3z m-505 -261 c2 -203 16 -429 29 -461 7
-19 254 -107 297 -107 18 1 90 22 162 48 l130 47 7 42 c10 60 28 399 28 530
l0 113 33 -7 c77 -14 208 -57 284 -93 100 -47 161 -88 235 -158 116 -110 157
-209 165 -399 3 -68 4 -123 1 -123 -2 0 -22 8 -44 19 -96 46 -167 56 -404 56
-254 0 -361 -17 -517 -79 l-83 -33 -82 33 c-138 55 -257 75 -478 81 -173 4
-207 3 -299 -16 -57 -12 -121 -31 -142 -41 -21 -11 -41 -20 -44 -20 -11 0 -4
178 10 244 25 117 66 191 154 276 86 83 149 124 270 176 67 29 237 80 276 83
6 1 11 -78 12 -211z m13 -523 c109 -21 181 -42 252 -72 l57 -25 67 27 c148 59
279 85 474 92 212 8 421 -25 489 -77 l24 -18 -17 -268 c-32 -511 -57 -681
-133 -898 -115 -330 -337 -740 -507 -935 -74 -85 -158 -156 -226 -189 -50 -25
-65 -27 -170 -27 -107 0 -119 2 -175 29 -71 35 -203 159 -285 267 -220 292
-446 781 -514 1114 -19 91 -41 327 -62 649 -16 250 -16 260 2 273 33 24 128
54 214 68 110 19 392 13 510 -10z m-750 -145 c0 -46 -5 -56 -50 -111 -60 -73
-80 -109 -80 -147 0 -31 44 -96 116 -172 40 -42 43 -50 50 -119 5 -53 4 -72
-4 -67 -20 12 -160 210 -192 270 -16 32 -30 70 -30 85 0 39 59 155 121 238 30
40 57 73 62 73 4 0 7 -23 7 -50z m2235 -90 c47 -74 75 -138 75 -176 0 -15 -14
-52 -30 -83 -31 -58 -185 -271 -196 -271 -4 0 -3 30 1 68 6 57 12 73 43 111
93 110 122 155 122 187 0 34 -57 129 -104 173 -26 24 -35 76 -20 115 7 19 42
-21 109 -124z m-2217 -180 c6 -102 9 -186 8 -188 -4 -4 -129 155 -140 178 -5
10 -6 29 -3 42 9 35 108 172 117 162 4 -5 12 -92 18 -194z m2198 74 c18 -34
25 -58 21 -75 -6 -22 -136 -194 -142 -187 -3 2 21 373 25 388 2 11 72 -79 96
-126z"/>
<path d="M1035 3032 c16 -16 235 -112 255 -112 19 0 272 112 266 117 -2 2 -62
-22 -134 -53 l-131 -57 -98 43 c-141 62 -169 73 -158 62z"/>
<path d="M1060 2721 c8 -5 64 -28 124 -50 l110 -41 118 46 c66 25 117 48 115
50 -2 2 -53 -14 -113 -36 -60 -22 -116 -40 -124 -40 -8 0 -64 18 -123 40 -107
39 -137 48 -107 31z"/>
<path d="M740 3076 c-120 -42 -290 -149 -307 -192 -4 -10 10 -31 37 -57 l44
-42 -39 44 -38 45 53 48 c59 53 181 120 280 154 36 13 58 23 50 23 -8 0 -44
-10 -80 -23z"/>
<path d="M1758 3093 c7 -3 16 -2 19 1 4 3 -2 6 -13 5 -11 0 -14 -3 -6 -6z"/>
<path d="M1861 3058 c107 -46 201 -104 245 -149 l38 -39 -39 -42 -40 -43 44
42 c28 26 42 47 38 57 -17 44 -247 184 -332 201 -16 3 4 -9 46 -27z"/>
<path d="M902 2945 c-2 -94 8 -241 24 -386 l7 -62 -159 107 c-178 119 -164
101 22 -29 153 -106 159 -109 151 -64 -8 43 -36 371 -40 464 -2 55 -3 49 -5
-30z"/>
<path d="M1667 2885 c-4 -88 -14 -214 -21 -280 -8 -66 -12 -122 -10 -124 5 -5
214 136 259 174 17 15 -33 -15 -109 -66 l-139 -91 6 45 c15 108 28 320 25 407
-3 88 -4 83 -11 -65z"/>
<path d="M530 2776 c0 -2 8 -10 18 -17 15 -13 16 -12 3 4 -13 16 -21 21 -21
13z"/>
<path d="M2029 2763 c-13 -16 -12 -17 4 -4 9 7 17 15 17 17 0 8 -8 3 -21 -13z"/>
<path d="M1979 2723 c-13 -16 -12 -17 4 -4 16 13 21 21 13 21 -2 0 -10 -8 -17
-17z"/>
<path d="M1939 2693 c-13 -16 -12 -17 4 -4 16 13 21 21 13 21 -2 0 -10 -8 -17
-17z"/>
<path d="M666 2418 c-3 -13 -5 -59 -4 -103 l1 -80 7 100 c7 106 6 119 -4 83z"/>
<path d="M1908 2357 c4 -120 9 -135 10 -32 1 50 -2 95 -6 102 -4 6 -6 -26 -4
-70z"/>
<path d="M2082 2325 c0 -84 2 -101 9 -70 10 50 10 122 -1 155 -5 16 -8 -16 -8
-85z"/>
<path d="M485 2377 c-4 -23 -2 -69 3 -102 10 -60 10 -60 11 43 0 56 -1 102 -3
102 -3 0 -8 -19 -11 -43z"/>
<path d="M840 2414 c0 -5 -4 -35 -9 -66 -6 -31 -6 -69 -2 -85 6 -21 9 -5 13
62 4 50 4 92 2 94 -2 2 -4 0 -4 -5z"/>
<path d="M1735 2385 c2 -22 5 -62 5 -88 0 -32 4 -46 11 -41 12 7 3 115 -13
149 -6 14 -7 9 -3 -20z"/>
<path d="M1011 2340 c-11 -53 -15 -127 -6 -118 6 6 25 161 20 166 -2 2 -8 -20
-14 -48z"/>
<path d="M1557 2340 c3 -30 9 -73 13 -95 8 -39 8 -39 8 15 0 30 -5 73 -13 95
l-13 40 5 -55z"/>
<path d="M2224 2261 c0 -71 2 -113 6 -96 10 41 12 213 3 218 -5 3 -8 -52 -9
-122z"/>
<path d="M342 2295 c0 -44 3 -98 7 -120 l9 -40 0 50 c0 28 -4 82 -8 120 l-7
70 -1 -80z"/>
<path d="M1165 2321 c-8 -13 -19 -177 -12 -171 6 6 26 180 21 180 -2 0 -5 -4
-9 -9z"/>
<path d="M1412 2280 c0 -25 3 -65 7 -90 l8 -45 1 60 c0 33 -4 74 -8 90 -7 27
-8 26 -8 -15z"/>
<path d="M601 2209 c-53 -10 -144 -40 -139 -45 2 -2 33 6 68 17 40 13 106 23
172 26 200 11 356 -32 564 -153 30 -17 32 -17 60 3 55 39 170 92 259 119 82
25 104 28 245 28 132 0 165 -3 220 -22 35 -11 66 -19 68 -17 2 2 -27 13 -65
25 -97 32 -288 39 -403 15 -99 -20 -209 -63 -298 -116 l-63 -38 -53 34 c-75
47 -207 100 -298 119 -83 17 -262 20 -337 5z"/>
<path d="M788 2023 c12 -2 32 -2 45 0 12 2 2 4 -23 4 -25 0 -35 -2 -22 -4z"/>
<path d="M1748 2023 c12 -2 32 -2 45 0 12 2 2 4 -23 4 -25 0 -35 -2 -22 -4z"/>
<path d="M873 2013 c9 -2 23 -2 30 0 6 3 -1 5 -18 5 -16 0 -22 -2 -12 -5z"/>
<path d="M1683 2013 c9 -2 23 -2 30 0 6 3 -1 5 -18 5 -16 0 -22 -2 -12 -5z"/>
<path d="M990 1986 c70 -21 168 -63 197 -83 12 -9 -16 -138 -171 -778 -8 -33
-11 -64 -7 -68 36 -36 527 -36 563 1 4 4 -11 81 -32 172 -41 177 -148 625
-156 651 -4 16 48 46 156 91 30 13 35 17 15 13 -38 -8 -170 -69 -179 -83 -3
-5 34 -180 83 -388 49 -209 93 -396 96 -416 l7 -36 -49 -8 c-62 -11 -361 -11
-436 0 l-59 8 7 36 c4 21 47 207 96 415 49 208 87 382 84 388 -16 25 -228 110
-272 108 -10 0 16 -10 57 -23z"/>
<path d="M1605 2000 c-25 -11 1 -11 35 0 20 6 21 8 5 8 -11 0 -29 -3 -40 -8z"/>
<path d="M720 1930 c0 -5 5 -10 11 -10 5 0 7 5 4 10 -3 6 -8 10 -11 10 -2 0
-4 -4 -4 -10z"/>
<path d="M760 1930 c0 -5 5 -10 10 -10 6 0 10 5 10 10 0 6 -4 10 -10 10 -5 0
-10 -4 -10 -10z"/>
<path d="M800 1930 c0 -5 5 -10 10 -10 6 0 10 5 10 10 0 6 -4 10 -10 10 -5 0
-10 -4 -10 -10z"/>
<path d="M1760 1930 c0 -5 5 -10 10 -10 6 0 10 5 10 10 0 6 -4 10 -10 10 -5 0
-10 -4 -10 -10z"/>
<path d="M1800 1930 c0 -5 5 -10 10 -10 6 0 10 5 10 10 0 6 -4 10 -10 10 -5 0
-10 -4 -10 -10z"/>
<path d="M1928 1913 c7 -3 16 -2 19 1 4 3 -2 6 -13 5 -11 0 -14 -3 -6 -6z"/>
<path d="M555 1890 c-3 -5 -1 -10 4 -10 6 0 11 5 11 10 0 6 -2 10 -4 10 -3 0
-8 -4 -11 -10z"/>
<path d="M2010 1890 c0 -5 5 -10 11 -10 5 0 7 5 4 10 -3 6 -8 10 -11 10 -2 0
-4 -4 -4 -10z"/>
<path d="M520 1869 c0 -5 5 -7 10 -4 6 3 10 8 10 11 0 2 -4 4 -10 4 -5 0 -10
-5 -10 -11z"/>
<path d="M2045 1870 c3 -5 8 -10 11 -10 2 0 4 5 4 10 0 6 -5 10 -11 10 -5 0
-7 -4 -4 -10z"/>
<path d="M485 1850 c-3 -5 -1 -10 4 -10 6 0 11 5 11 10 0 6 -2 10 -4 10 -3 0
-8 -4 -11 -10z"/>
<path d="M2080 1850 c0 -5 5 -10 11 -10 5 0 7 5 4 10 -3 6 -8 10 -11 10 -2 0
-4 -4 -4 -10z"/>
<path d="M1080 1830 c0 -5 5 -10 11 -10 5 0 7 5 4 10 -3 6 -8 10 -11 10 -2 0
-4 -4 -4 -10z"/>
<path d="M1490 1829 c0 -5 5 -7 10 -4 6 3 10 8 10 11 0 2 -4 4 -10 4 -5 0 -10
-5 -10 -11z"/>
<path d="M445 1820 c-3 -5 -2 -10 4 -10 5 0 13 5 16 10 3 6 2 10 -4 10 -5 0
-13 -4 -16 -10z"/>
<path d="M2120 1820 c0 -5 5 -10 11 -10 5 0 7 5 4 10 -3 6 -8 10 -11 10 -2 0
-4 -4 -4 -10z"/>
<path d="M1114 1801 c4 -5 1 -12 -4 -14 -6 -3 -5 -4 2 -3 15 3 23 26 8 26 -6
0 -9 -4 -6 -9z"/>
<path d="M1456 1795 c4 -8 10 -15 15 -15 4 0 6 7 3 15 -4 8 -10 15 -15 15 -4
0 -6 -7 -3 -15z"/>
<path d="M2090 1799 c0 -5 5 -7 10 -4 6 3 10 8 10 11 0 2 -4 4 -10 4 -5 0 -10
-5 -10 -11z"/>
<path d="M520 1790 c0 -5 5 -10 11 -10 5 0 7 5 4 10 -3 6 -8 10 -11 10 -2 0
-4 -4 -4 -10z"/>
<path d="M2045 1790 c-3 -5 -1 -10 4 -10 6 0 11 5 11 10 0 6 -2 10 -4 10 -3 0
-8 -4 -11 -10z"/>
<path d="M560 1780 c0 -5 5 -10 11 -10 5 0 7 5 4 10 -3 6 -8 10 -11 10 -2 0
-4 -4 -4 -10z"/>
<path d="M600 1770 c0 -5 5 -10 11 -10 5 0 7 5 4 10 -3 6 -8 10 -11 10 -2 0
-4 -4 -4 -10z"/>
<path d="M640 1760 c0 -5 5 -10 11 -10 5 0 7 5 4 10 -3 6 -8 10 -11 10 -2 0
-4 -4 -4 -10z"/>
<path d="M1018 1763 c7 -3 16 -2 19 1 4 3 -2 6 -13 5 -11 0 -14 -3 -6 -6z"/>
<path d="M1548 1763 c7 -3 16 -2 19 1 4 3 -2 6 -13 5 -11 0 -14 -3 -6 -6z"/>
<path d="M1925 1760 c-3 -5 -1 -10 4 -10 6 0 11 5 11 10 0 6 -2 10 -4 10 -3 0
-8 -4 -11 -10z"/>
<path d="M725 1750 c-3 -5 -1 -10 4 -10 6 0 11 5 11 10 0 6 -2 10 -4 10 -3 0
-8 -4 -11 -10z"/>
<path d="M930 1750 c0 -5 5 -10 10 -10 6 0 10 5 10 10 0 6 -4 10 -10 10 -5 0
-10 -4 -10 -10z"/>
<path d="M1630 1750 c0 -5 5 -10 10 -10 6 0 10 5 10 10 0 6 -4 10 -10 10 -5 0
-10 -4 -10 -10z"/>
<path d="M1840 1750 c0 -5 5 -10 11 -10 5 0 7 5 4 10 -3 6 -8 10 -11 10 -2 0
-4 -4 -4 -10z"/>
<path d="M808 1743 c7 -3 16 -2 19 1 4 3 -2 6 -13 5 -11 0 -14 -3 -6 -6z"/>
<path d="M1758 1743 c7 -3 16 -2 19 1 4 3 -2 6 -13 5 -11 0 -14 -3 -6 -6z"/>
<path d="M2139 1704 c-86 -89 -226 -126 -455 -122 -121 2 -156 0 -166 -11 -11
-12 -10 -13 7 -7 11 4 92 7 180 6 215 -1 332 28 424 106 27 23 58 64 48 64 -2
0 -19 -16 -38 -36z"/>
<path d="M460 1670 c40 -32 123 -69 192 -85 67 -16 237 -19 303 -6 25 5 0 6
-67 3 -166 -8 -313 23 -403 83 -43 30 -60 33 -25 5z"/>
<path d="M390 1525 c0 -163 52 -342 165 -574 61 -124 200 -369 224 -393 4 -4
33 17 64 47 59 55 234 150 355 192 28 10 52 20 52 23 0 3 -46 34 -102 70 -56
36 -126 88 -155 117 -50 48 -53 54 -53 100 0 62 29 173 73 283 l35 85 -107 7
c-249 17 -397 51 -543 126 -5 2 -8 -35 -8 -83z m92 26 c96 -39 243 -68 402
-80 70 -5 130 -12 132 -14 2 -2 -7 -32 -21 -68 -65 -166 -87 -286 -62 -336 21
-40 91 -101 195 -170 46 -31 81 -58 78 -60 -3 -3 -50 -25 -105 -49 -126 -54
-225 -111 -273 -158 -20 -20 -39 -36 -42 -36 -7 0 -117 187 -178 300 -82 153
-155 342 -183 472 -16 75 -31 228 -22 228 3 0 38 -13 79 -29z"/>
<path d="M508 1433 c15 -5 15 -14 1 -67 -19 -71 -21 -73 -34 -26 -7 25 -13 37
-14 28 -2 -30 55 -194 83 -243 25 -41 46 -58 46 -36 0 26 138 57 188 42 18 -6
32 -6 32 -1 0 5 -23 12 -51 16 -43 6 -50 10 -46 26 3 10 15 61 28 113 l23 95
55 1 56 2 -75 9 c-68 8 -236 33 -285 41 -11 2 -14 2 -7 0z m105 -30 c13 -3 17
-11 13 -26 -2 -12 -15 -71 -27 -132 -12 -60 -25 -114 -29 -118 -4 -4 -22 25
-40 64 l-33 71 18 80 18 79 31 -6 c17 -4 39 -9 49 -12z m136 -19 c2 -2 -6 -38
-17 -81 -11 -43 -26 -97 -32 -120 -8 -34 -15 -43 -33 -43 -12 -1 -33 -7 -47
-15 -14 -8 -27 -14 -30 -15 -3 0 7 65 24 144 l29 145 51 -6 c28 -3 53 -7 55
-9z"/>
<path d="M812 1170 c0 -14 2 -19 5 -12 2 6 2 18 0 25 -3 6 -5 1 -5 -13z"/>
<path d="M683 1040 c-45 -27 -42 -35 4 -10 21 11 46 20 57 20 10 0 55 -35 100
-77 81 -78 81 -78 22 -13 -101 110 -120 119 -183 80z"/>
<path d="M634 935 c8 -23 101 -192 120 -217 12 -17 18 -15 79 25 36 24 84 51
106 62 42 19 49 29 29 41 -7 4 -8 3 -4 -4 4 -7 -21 -25 -66 -48 -40 -20 -85
-45 -99 -55 -32 -23 -29 -27 -110 112 -34 57 -58 95 -55 84z"/>
<path d="M2135 1585 c-79 -48 -283 -90 -486 -101 l-117 -7 30 -71 c45 -110 78
-233 78 -294 0 -54 -2 -57 -51 -105 -28 -27 -99 -80 -157 -117 -100 -65 -104
-69 -81 -79 13 -6 66 -28 116 -50 133 -56 238 -119 285 -170 48 -52 36 -61
134 101 178 294 286 568 303 770 7 82 4 149 -8 147 -3 0 -24 -12 -46 -24z m42
-93 c-12 -163 -75 -357 -189 -580 -58 -115 -185 -332 -194 -332 -3 0 -20 16
-40 35 -47 47 -158 111 -286 164 l-106 44 102 68 c131 87 186 143 193 197 7
51 -18 160 -62 277 -19 49 -33 91 -31 92 1 2 61 8 132 13 160 13 305 42 398
79 39 16 75 29 80 30 5 1 6 -37 3 -87z"/>
<path d="M1947 1414 c-43 -7 -112 -15 -153 -17 -89 -6 -111 -17 -33 -17 l54 0
29 -110 c16 -61 27 -112 25 -114 -2 -2 -24 -6 -48 -8 -40 -3 -45 -1 -52 22 -4
14 -7 18 -8 10 0 -8 2 -25 5 -37 5 -18 10 -20 31 -12 13 5 34 9 47 9 35 0 123
-29 140 -46 9 -8 20 -12 26 -9 27 17 111 231 109 279 -1 11 -7 1 -13 -24 l-13
-45 -11 40 c-6 22 -14 52 -18 68 -7 30 -5 30 -117 11z m118 -73 l18 -80 -23
-53 c-12 -29 -28 -62 -36 -72 -12 -18 -13 -18 -19 5 -27 115 -54 253 -51 257
5 4 62 19 82 21 6 1 19 -35 29 -78z m-98 -83 c16 -79 29 -144 27 -146 -1 -2
-16 4 -33 12 -16 9 -39 16 -49 16 -16 0 -24 19 -51 118 -17 65 -31 121 -31
125 0 3 19 8 43 10 23 2 47 4 53 5 6 1 23 -58 41 -140z"/>
<path d="M1721 1354 c0 -11 3 -14 6 -6 3 7 2 16 -1 19 -3 4 -6 -2 -5 -13z"/>
<path d="M1804 1047 c-23 -13 -130 -127 -119 -127 3 0 34 29 69 65 35 36 71
65 82 65 11 0 36 -9 57 -19 46 -23 48 -18 5 9 -38 23 -64 25 -94 7z"/>
<path d="M1880 833 c-35 -60 -64 -110 -66 -112 -1 -2 -15 6 -31 17 -15 11 -61
36 -101 56 -45 23 -70 41 -66 48 4 7 3 8 -4 4 -20 -12 -13 -22 29 -41 22 -11
70 -38 106 -62 36 -24 67 -43 68 -43 4 0 81 133 109 188 43 85 23 60 -44 -55z"/>
<path d="M1095 1185 c24 -8 59 -35 89 -67 36 -39 45 -45 33 -23 -29 57 -97
106 -145 105 -9 -1 1 -7 23 -15z"/>
<path d="M1455 1186 c-36 -16 -95 -80 -95 -104 0 -11 6 -7 19 13 27 44 64 75
108 90 21 8 29 14 18 14 -11 0 -34 -6 -50 -13z"/>
<path d="M1165 686 c-130 -56 -176 -79 -257 -132 -101 -65 -103 -100 -5 -162
62 -39 180 -94 227 -106 l25 -6 -25 11 c-136 62 -216 107 -252 140 -28 26 -36
38 -23 35 65 -17 238 -37 355 -40 131 -5 132 -4 30 3 -139 11 -360 42 -360 51
0 16 77 22 366 27 282 5 423 -3 458 -24 6 -4 -16 -13 -49 -20 l-60 -12 59 5
c33 3 65 8 73 11 7 3 13 1 13 -5 0 -15 -62 -59 -153 -107 -45 -25 -78 -45 -74
-45 14 0 131 60 180 93 78 53 75 87 -11 146 -102 69 -346 181 -394 181 -13 0
-68 -20 -123 -44z m212 3 c115 -45 283 -134 323 -169 23 -21 28 -29 15 -25
-74 24 -153 30 -410 30 -254 0 -370 -8 -442 -31 -41 -13 52 55 137 100 95 50
267 125 287 126 7 0 47 -14 90 -31z"/>
<path d="M1548 443 c7 -3 16 -2 19 1 4 3 -2 6 -13 5 -11 0 -14 -3 -6 -6z"/>
<path d="M1368 423 c7 -3 16 -2 19 1 4 3 -2 6 -13 5 -11 0 -14 -3 -6 -6z"/>
<path d="M1470 300 c-8 -5 -10 -10 -5 -10 6 0 17 5 25 10 8 5 11 10 5 10 -5 0
-17 -5 -25 -10z"/>
<path d="M1085 197 c40 -27 177 -98 181 -95 2 3 -27 22 -66 43 -38 22 -68 41
-66 42 1 1 37 -3 80 -11 42 -7 74 -10 69 -6 -9 8 -167 40 -198 40 -19 0 -19 0
0 -13z"/>
<path d="M1445 200 c-20 -5 -23 -8 -10 -9 13 -1 -2 -15 -47 -42 -38 -22 -68
-42 -68 -45 0 -5 96 46 165 88 24 14 26 18 10 17 -11 -1 -33 -5 -50 -9z"/>
<path d="M1308 173 c6 -2 18 -2 25 0 6 3 1 5 -13 5 -14 0 -19 -2 -12 -5z"/>
<path d="M3560 3214 c-182 -38 -359 -142 -515 -298 -174 -176 -293 -392 -360
-656 -49 -192 -59 -280 -59 -530 -1 -259 15 -382 74 -595 155 -549 556 -1055
885 -1116 90 -17 229 -6 302 24 306 124 651 590 789 1066 59 203 75 313 81
546 6 245 -3 362 -43 544 -67 298 -185 524 -378 717 -242 243 -526 352 -776
298z m310 -25 c212 -58 429 -214 577 -416 51 -69 173 -286 173 -308 0 -4 -26
18 -57 48 -212 204 -521 382 -796 457 l-79 22 -127 -41 c-241 -76 -498 -223
-693 -395 -54 -48 -98 -83 -98 -79 0 18 91 187 136 254 137 204 363 380 574
447 92 29 94 30 210 31 78 1 125 -4 180 -20z m-19 -259 c244 -83 484 -227 696
-418 67 -60 86 -84 103 -128 11 -30 20 -57 20 -60 0 -4 -38 30 -85 74 -216
205 -519 390 -779 477 l-106 36 -61 -16 c-248 -65 -620 -285 -846 -503 -75
-71 -88 -71 -54 3 20 42 106 130 206 210 162 130 396 259 594 326 137 47 170
47 312 -1z m-37 -70 c255 -86 598 -303 799 -507 64 -65 69 -74 86 -146 10 -42
18 -77 17 -77 0 0 -32 29 -70 65 -107 101 -278 175 -406 175 -61 0 -173 -29
-240 -62 -109 -53 -235 -200 -264 -308 -4 -14 9 8 29 47 137 276 452 380 728
242 65 -33 177 -117 177 -134 0 -5 12 -19 26 -30 24 -19 28 -32 39 -131 7 -60
11 -111 9 -113 -1 -2 -17 7 -33 19 -50 35 -148 70 -220 79 -226 28 -432 -92
-541 -313 -80 -163 -118 -405 -99 -641 5 -65 11 -121 13 -122 2 -2 1 70 -2
160 -5 161 6 302 30 407 9 40 14 48 20 34 4 -11 5 -2 2 21 -4 26 -2 35 4 27 7
-10 11 -5 16 19 3 18 24 70 46 115 107 222 325 324 573 268 61 -14 77 -23 110
-58 22 -23 34 -31 28 -18 -7 12 -8 22 -4 22 10 -1 57 -40 52 -43 -2 -2 -122
-50 -266 -107 -145 -57 -261 -105 -259 -107 1 -2 119 42 260 97 141 55 261
100 267 100 14 0 11 -241 -5 -370 -22 -173 -61 -342 -108 -468 l-20 -53 -28
80 c-27 80 -99 213 -122 227 -7 4 -2 -6 10 -23 32 -45 99 -190 114 -245 16
-61 8 -74 -102 -186 -73 -76 -125 -120 -276 -240 -16 -13 -6 -8 21 9 81 52
194 148 278 234 84 86 86 82 21 -47 -165 -327 -412 -602 -630 -700 -38 -17
-74 -22 -163 -26 -108 -4 -114 -3 -106 14 17 38 17 121 1 153 -22 42 -27 39
-10 -6 16 -47 17 -77 3 -127 -10 -37 -12 -38 -46 -33 -101 17 -251 116 -384
254 -130 136 -236 288 -329 473 -65 130 -64 135 13 54 81 -86 193 -182 282
-241 64 -42 107 -66 65 -36 -174 126 -350 283 -404 362 l-28 40 17 57 c18 61
83 199 118 248 12 16 16 26 9 22 -22 -13 -95 -147 -127 -232 l-31 -83 -37 114
c-20 64 -48 170 -62 238 -37 187 -58 491 -36 526 7 11 29 5 112 -28 249 -97
363 -140 366 -137 4 3 -200 87 -354 146 l-82 31 27 39 c20 29 42 45 82 61 69
26 195 36 272 20 191 -40 341 -203 394 -426 l18 -77 -24 -19 c-14 -10 -21 -19
-16 -19 22 0 -40 -50 -92 -73 -156 -70 -361 -28 -495 101 -39 38 -102 153
-112 207 -5 24 -2 21 18 -17 39 -77 105 -157 168 -203 58 -43 153 -86 187 -84
9 0 -1 6 -23 13 -169 54 -316 209 -362 381 l-13 50 5 -65 c8 -93 29 -157 73
-225 47 -73 110 -126 199 -168 64 -29 75 -31 183 -32 103 0 121 3 171 26 30
14 71 43 91 63 19 20 38 36 42 36 3 0 6 -57 6 -126 0 -132 -17 -274 -49 -407
l-18 -77 41 -30 c44 -33 123 -61 165 -59 l26 2 -25 4 c-66 12 -129 36 -159 61
l-34 28 21 89 c30 130 44 245 46 373 0 81 3 105 10 85 5 -15 9 -125 10 -243 0
-120 4 -193 8 -165 3 28 7 109 7 180 3 466 -178 778 -481 831 -124 22 -255 -3
-356 -66 -29 -18 -48 -25 -51 -18 -2 6 2 55 9 109 10 85 16 102 40 128 16 16
32 26 36 23 4 -4 4 -2 0 5 -9 16 91 95 169 133 218 107 464 70 628 -95 37 -36
78 -90 98 -128 18 -36 35 -64 37 -62 2 2 -13 35 -33 73 -123 235 -406 345
-658 257 -93 -32 -147 -66 -228 -142 -38 -36 -69 -62 -69 -59 0 4 7 39 16 79
16 70 19 74 103 157 201 199 521 399 783 490 106 37 130 37 242 0z m-1126
-989 c-13 -21 -38 -29 -38 -12 0 11 42 43 48 37 2 -2 -3 -13 -10 -25z"/>
<path d="M3791 3130 c-1 -36 -5 -82 -10 -102 -5 -21 -5 -36 -1 -33 18 11 32
117 22 159 -10 41 -10 41 -11 -24z"/>
<path d="M3584 3105 c1 -44 8 -89 15 -100 10 -17 11 -15 5 15 -4 19 -11 64
-15 100 l-8 65 3 -80z"/>
<path d="M3335 2988 c-78 -14 -203 -80 -272 -142 -63 -58 -142 -156 -170 -211
-20 -40 -7 -24 49 55 56 80 160 180 231 220 73 42 161 69 253 79 77 8 78 8 19
9 -33 0 -82 -4 -110 -10z"/>
<path d="M3950 2990 c206 -20 362 -117 505 -315 37 -51 50 -65 37 -40 -17 32
-74 109 -112 151 -125 138 -288 216 -445 212 l-60 -1 75 -7z"/>
<path d="M3550 2750 c79 -84 63 -265 -34 -369 -30 -33 -31 -34 -6 -27 48 12
246 18 310 8 36 -5 66 -9 68 -7 1 1 -10 16 -26 33 -92 99 -106 271 -29 359
l32 36 -70 -9 c-88 -11 -134 -11 -212 0 l-63 8 30 -32z m200 6 c38 5 70 9 70
7 0 -1 -10 -19 -22 -40 -19 -32 -23 -53 -23 -128 0 -94 18 -149 65 -200 19
-20 18 -20 -144 -20 l-164 0 19 27 c68 95 83 227 37 315 l-25 48 58 -9 c38 -6
84 -6 129 0z"/>
<path d="M3655 2679 c12 -37 7 -153 -9 -198 -9 -24 -16 -45 -16 -47 0 -2 27
-4 60 -4 33 0 60 3 60 6 0 3 -7 31 -16 62 -12 40 -15 77 -11 129 l5 73 -39 0
c-36 0 -40 -2 -34 -21z m60 -81 c0 -51 4 -107 9 -123 l8 -31 -40 4 -40 4 15
56 c10 37 13 79 9 120 -5 59 -4 62 17 62 21 0 22 -4 22 -92z"/>
<path d="M3415 2693 c11 -26 18 -128 11 -156 -3 -13 -17 -40 -30 -60 -28 -41
-17 -49 32 -23 72 37 101 118 68 188 -21 44 -99 93 -81 51z m70 -59 c25 -52
15 -101 -30 -141 -46 -43 -59 -42 -33 3 23 39 30 115 15 167 -7 25 -6 27 11
18 11 -6 27 -27 37 -47z"/>
<path d="M3921 2684 c-60 -50 -62 -142 -6 -199 30 -29 81 -53 92 -42 2 3 -7
21 -21 42 -39 57 -44 113 -20 203 8 29 -7 28 -45 -4z m21 -67 c-4 -61 -1 -80
17 -115 27 -52 11 -55 -35 -6 -29 30 -34 43 -34 84 0 38 6 55 26 79 14 17 27
31 28 31 2 0 1 -33 -2 -73z"/>
<path d="M4217 2259 c-162 -24 -353 -151 -455 -304 -22 -34 -24 -38 -6 -15 72
92 191 196 269 236 99 51 127 60 240 78 50 8 72 14 50 14 -22 0 -66 -4 -98 -9z"/>
<path d="M3085 2249 c61 -4 135 -15 165 -24 133 -42 270 -135 356 -245 56 -71
69 -79 22 -14 -59 83 -174 181 -262 224 -110 54 -180 70 -296 68 l-95 -1 110
-8z"/>
<path d="M4383 2253 c9 -2 23 -2 30 0 6 3 -1 5 -18 5 -16 0 -22 -2 -12 -5z"/>
<path d="M2938 2243 c7 -3 16 -2 19 1 4 3 -2 6 -13 5 -11 0 -14 -3 -6 -6z"/>
<path d="M2937 1903 c-51 -67 -81 -113 -75 -113 6 0 87 103 113 143 30 47 8
29 -38 -30z"/>
<path d="M2838 1923 c-29 -32 -68 -88 -68 -98 0 -7 30 28 74 88 33 44 30 49
-6 10z"/>
<path d="M4427 1910 c41 -60 93 -124 93 -116 0 11 -88 132 -107 147 -9 8 -3
-6 14 -31z"/>
<path d="M4520 1944 c0 -10 68 -100 87 -115 15 -12 16 -12 8 1 -14 24 -87 120
-91 120 -2 0 -4 -3 -4 -6z"/>
<path d="M3035 1882 c-52 -74 -90 -136 -78 -129 14 9 127 176 122 181 -2 3
-22 -21 -44 -52z"/>
<path d="M4311 1918 c18 -35 99 -147 111 -154 15 -10 5 7 -60 99 -56 77 -73
96 -51 55z"/>
<path d="M3117 1823 c-67 -96 -74 -108 -58 -99 6 4 33 40 59 79 59 88 65 97
58 97 -2 0 -29 -35 -59 -77z"/>
<path d="M4225 1863 c37 -59 106 -153 112 -153 6 0 -14 33 -74 118 -44 62 -71
87 -38 35z"/>
<path d="M3207 1778 c-79 -112 -82 -119 -66 -129 8 -5 19 -9 24 -9 6 1 2 5 -7
11 -16 9 -12 18 36 87 61 88 69 102 62 102 -3 0 -25 -28 -49 -62z"/>
<path d="M4135 1819 c18 -31 96 -139 101 -139 6 0 0 10 -48 82 -34 51 -74 94
-53 57z"/>
<path d="M4660 1749 c0 -34 -64 -160 -107 -212 -88 -105 -206 -172 -333 -187
-57 -6 -60 -8 -20 -9 152 -4 338 119 420 277 38 74 39 41 1 -43 -94 -207 -351
-316 -559 -237 -55 21 -135 79 -127 92 2 4 -4 15 -15 25 -35 32 -22 -4 18 -46
118 -129 355 -146 520 -39 31 20 75 57 98 81 51 56 99 152 99 200 0 21 3 35 7
33 5 -3 8 15 8 40 0 25 -2 46 -5 46 -3 0 -5 -9 -5 -21z"/>
<path d="M3297 1728 c-13 -18 -32 -46 -42 -63 l-17 -30 28 32 c30 33 69 93 60
93 -3 0 -16 -15 -29 -32z"/>
<path d="M4060 1753 c0 -6 20 -38 44 -71 25 -33 42 -62 39 -65 -3 -3 5 -3 18
0 l23 6 -22 8 c-12 5 -22 12 -22 16 -1 13 -80 119 -80 106z"/>
<path d="M4505 1710 c-49 -21 -171 -71 -269 -111 -99 -40 -174 -75 -168 -77 6
-2 25 3 42 11 16 9 44 18 61 22 16 4 42 13 57 21 15 8 33 14 40 14 7 0 20 4
30 9 28 15 162 59 173 57 3 0 13 5 23 13 9 8 19 12 21 9 6 -6 -18 -58 -27 -58
-5 0 -8 -5 -8 -10 0 -18 -93 -105 -130 -122 -58 -26 -137 -40 -197 -35 -68 6
-139 30 -135 46 3 14 -15 15 -23 1 -10 -15 108 -67 170 -75 111 -13 247 35
327 117 47 48 112 166 106 192 -2 10 -27 3 -93 -24z"/>
<path d="M2796 1698 c62 -176 245 -295 419 -272 93 12 195 61 165 79 -5 3 -10
0 -10 -9 0 -8 -14 -17 -32 -21 -18 -4 -37 -10 -43 -14 -33 -22 -265 5 -265 30
0 5 -6 9 -14 9 -17 0 -108 91 -126 127 -8 15 -19 31 -25 35 -5 4 -6 10 -2 14
3 4 13 2 20 -4 8 -7 16 -10 19 -7 3 3 18 -1 34 -10 16 -8 37 -15 46 -15 9 0
20 -4 23 -10 3 -5 14 -10 23 -10 9 0 29 -6 44 -14 15 -8 41 -17 58 -21 17 -4
43 -13 58 -21 15 -8 34 -14 43 -14 9 0 19 -3 23 -7 4 -5 11 -8 14 -9 11 -1 46
-15 65 -25 11 -6 21 -8 24 -5 3 3 -10 12 -28 20 -90 41 -525 216 -536 216 -9
0 -9 -10 3 -42z"/>
<path d="M3363 1633 c-28 -39 -35 -53 -29 -53 9 0 59 70 53 76 -2 3 -14 -7
-24 -23z"/>
<path d="M4015 1623 c15 -24 32 -43 37 -43 11 0 -23 50 -48 71 -10 8 -5 -5 11
-28z"/>
<path d="M4030 1509 c0 -5 5 -7 10 -4 6 3 10 8 10 11 0 2 -4 4 -10 4 -5 0 -10
-5 -10 -11z"/>
<path d="M3994 1396 c11 -9 24 -16 30 -16 12 0 7 5 -24 19 -24 11 -24 11 -6
-3z"/>
<path d="M3153 1343 c15 -2 39 -2 55 0 15 2 2 4 -28 4 -30 0 -43 -2 -27 -4z"/>
<path d="M3046 1208 c-36 -63 -73 -147 -87 -199 l-12 -46 49 -73 c65 -97 197
-236 276 -289 35 -23 47 -30 29 -14 -130 105 -219 200 -297 314 l-45 66 26 79
c14 43 42 107 60 142 39 70 39 85 1 20z"/>
<path d="M4365 1132 c19 -42 39 -98 46 -123 l12 -46 -54 -78 c-54 -79 -176
-210 -259 -280 -33 -27 -36 -31 -10 -14 98 65 219 192 304 319 l36 56 -23 69
c-23 68 -73 175 -81 175 -3 0 11 -35 29 -78z"/>
<path d="M3502 890 c0 -14 2 -19 5 -12 2 6 2 18 0 25 -3 6 -5 1 -5 -13z"/>
<path d="M3916 794 c-26 -19 -44 -34 -39 -34 11 0 93 57 93 65 0 7 2 8 -54
-31z"/>
<path d="M3798 743 c6 -2 18 -2 25 0 6 3 1 5 -13 5 -14 0 -19 -2 -12 -5z"/>
<path d="M3743 733 c9 -2 23 -2 30 0 6 3 -1 5 -18 5 -16 0 -22 -2 -12 -5z"/>
<path d="M3673 723 c9 -2 25 -2 35 0 9 3 1 5 -18 5 -19 0 -27 -2 -17 -5z"/>
<path d="M3570 604 c-70 -19 -249 -105 -274 -133 -18 -20 -18 -21 5 -41 73
-61 171 -131 219 -156 51 -27 63 -29 170 -29 106 0 120 2 172 28 71 35 238
162 238 182 0 27 -198 127 -300 152 -71 16 -161 15 -230 -3z m199 -5 c88 -16
311 -115 311 -139 0 -4 -21 -14 -47 -21 -68 -20 -605 -20 -682 0 l-55 14 25
20 c40 34 205 107 271 122 80 17 97 17 177 4z m-324 -190 c129 -19 477 -9 594
17 l26 6 -30 -26 c-60 -52 -177 -126 -218 -138 -56 -16 -202 -15 -252 1 -45
15 -152 83 -205 131 l-35 31 30 -6 c17 -4 57 -11 90 -16z"/>
<path d="M3756 190 c-19 -48 -20 -84 -2 -125 12 -28 12 -25 8 32 -2 34 1 76 7
94 16 47 6 47 -13 -1z"/>
</g>
</svg>
